<?xml version="1.0" encoding="UTF-8"?>
<svg id="Calque_1" data-name="Calque 1" xmlns="http://www.w3.org/2000/svg" xmlns:xlink="http://www.w3.org/1999/xlink" viewBox="0 0 123.02 108.83">
  <defs>
    <style>
      .cls-1 {
        clip-path: url(#clippath);
      }

      .cls-2 {
        fill: none;
      }

      .cls-2, .cls-3 {
        stroke-width: 0px;
      }

      .cls-3 {
        fill: #7F351B;
      }
    </style>
    <clipPath id="clippath">
      <rect class="cls-2" y="0" width="123.02" height="108.83"/>
    </clipPath>
  </defs>
  <g id="Groupe_1594" data-name="Groupe 1594">
    <g class="cls-1">
      <g id="Groupe_1593" data-name="Groupe 1593">
        <path id="Tracé_485" data-name="Tracé 485" class="cls-3" d="M123.02,46.25c-.21.89-.39,1.79-.63,2.67-2.27,8.7-10.02,14.84-19,15.08-.31.01-.62.04-1.05.06,0,2.58.07,5.09-.02,7.6-.07,4.09-3.43,7.35-7.52,7.28-1.93-.03-3.78-.82-5.14-2.19-.61-.62-1.18-1.27-1.68-1.82-.46,2.12-1.03,4.21-1.71,6.26-2.99,7.64-10.37,12.65-18.57,12.63-3.88,0-7.77.01-11.65,0-1,.09-1.88-.65-1.96-1.64,0-.05,0-.11,0-.16.01-1.01.84-1.82,1.85-1.8.04,0,.07,0,.11,0,.32-.01.64,0,.96,0,3.44,0,6.89,0,10.33,0,7.92.16,14.82-5.38,16.38-13.14.3-2.05.43-4.13.37-6.21-.05-.39-.23-.74-.51-1.01-1.46-1.7-2.97-3.36-4.4-5.08-.41-.53-1.07-.82-1.74-.77-7.37.02-14.74.05-22.1,0-9.08-.01-17.02-6.14-19.32-14.93-.44-1.9-.67-3.85-.68-5.8-.11-3.19-.03-6.39-.03-9.68-.48-.03-.87-.06-1.25-.07-4.6,0-9.21-.01-13.81,0-9.12-.06-16.55,7.29-16.61,16.41,0,.03,0,.07,0,.1-.05,7.89-.05,15.78,0,23.66,0,9.13,7.41,16.52,16.54,16.51.02,0,.05,0,.07,0,.68,0,1.36-.01,2.04,0,1.41.03,2.04.63,2.06,2.06.03,2.88.01,5.77.01,8.65-.16,1.56.64,3.06,2.03,3.79,1.62.89,3.64.45,4.73-1.04,3.58-4.05,7.15-8.11,10.67-12.21.64-.88,1.7-1.36,2.78-1.27,1.24.08,2.48.01,3.72.02,1.45.01,2.19.62,2.21,1.78.08.94-.61,1.77-1.55,1.85-.2.02-.4,0-.6-.05-2.81-.42-4.63.72-6.33,2.92-2.54,3.29-5.43,6.31-8.18,9.43-2.62,3.16-7.3,3.59-10.46.97-1.74-1.45-2.73-3.61-2.68-5.87-.01-2.36-.02-4.72-.03-7.09,0-.07-.06-.14.03.07-2.49-.39-4.94-.93-7.37-1.61C5.32,89.82-.03,82.27,0,73.81,0,65.84,0,57.87,0,49.9c0-10.95,8.81-19.85,19.76-19.98,4.68-.05,9.37-.02,14.05-.02h1.47v-1.36c0-2.68.06-5.37-.01-8.05C35.09,9.36,43.95.19,55.07,0c.16,0,.32,0,.49,0C71.25.01,86.95.01,102.65,0c3.25-.03,6.46.71,9.37,2.17.87.29,1.42,1.15,1.32,2.06-.12.99-1.03,1.68-2.01,1.56-.22-.03-.44-.1-.63-.2-3.04-1.44-6.4-2.1-9.76-1.91-15.1.05-30.19.02-45.28.03-7.87-.18-14.75,5.3-16.34,13.01-.24,1.09-.37,2.21-.37,3.33-.03,7.97-.03,15.93-.01,23.9-.05,8.67,6.74,15.84,15.4,16.26,7.84.27,15.69.14,23.54.09,1.48-.08,2.9.57,3.8,1.75,3.33,3.95,6.77,7.8,10.17,11.68,1.31,1.5,2.75,1.96,4.37,1.34,1.57-.54,2.59-2.08,2.47-3.74.02-2.8,0-5.61.01-8.41,0-2.11.5-2.65,2.65-2.59,4.36.32,8.67-1.03,12.07-3.78,3.79-3.03,5.99-7.61,5.99-12.46.11-8.01.07-16.02.01-24.02,0-3.55-1.17-7-3.33-9.82-.07-.1-.14-.2-.21-.29-.83-1.15-.8-2.16.07-2.86.93-.75,1.91-.53,2.86.68,1.81,2.3,3.09,4.98,3.74,7.83.16.69.33,1.38.49,2.07v28.59Z"/>
        <path id="Tracé_486" data-name="Tracé 486" class="cls-3" d="M93.28,49.68c-1.18-.48-2.34-.87-3.43-1.41-1.26-.62-2.25-.18-2.11,1.16.36,3.59-2.31,6.85-6.71,6.61-1.52-.08-3.04.02-4.56-.02-3.19.06-5.81-2.48-5.87-5.67,0-.06,0-.12,0-.19v-.24c-.03-2.1-.62-2.38-2.55-1.43-.92.46-1.92.75-2.94.85-2.1.18-4.1-.9-5.1-2.76-.99-1.6-1.92-3.23-2.83-4.88-1.63-2.73-.74-6.26,1.99-7.88.06-.04.12-.07.19-.11.21-.12.42-.24.62-.36,1.15-.68,1.17-1.68-.02-2.32-2.55-1.37-3.9-3.38-3.48-6.35.12-.71.36-1.39.71-2.01.85-1.58,1.76-3.14,2.68-4.68,1.5-2.8,4.99-3.86,7.79-2.36.1.05.2.11.29.17.25.13.48.28.73.41,1.02.53,1.85,0,1.91-1.16-.01-.87.08-1.75.28-2.6.52-2.18,2.4-3.78,4.64-3.93,2.39-.2,4.79-.21,7.19-.01,2.89.25,5.09,2.71,5.01,5.61,0,.28,0,.56,0,.84.02,1.32.85,1.75,2.04,1.23,1.13-.56,2.34-.95,3.58-1.14,2.02-.18,3.95.86,4.91,2.65,1.06,1.69,2.06,3.43,3,5.19,1.46,2.65.59,5.98-1.98,7.58-.33.22-.68.41-1.03.62-1,.61-1.03,1.63,0,2.18,2.49,1.32,4.21,3.31,3.56,6.16-.77,3.49-2.64,6.64-5.34,8.99-.78.67-2.02.81-3.19,1.24M64.8,18.38c-.63.39-1.2.88-1.7,1.43-.99,1.5-1.85,3.08-2.72,4.66-.64.95-.4,2.24.55,2.88.07.05.14.09.21.13.7.46,1.46.83,2.18,1.27,1.37.84,1.68,5.63.43,6.64-.19.14-.4.27-.61.38-.69.4-1.4.77-2.07,1.22-.98.53-1.34,1.76-.8,2.73.02.03.03.06.05.08.92,1.69,1.87,3.35,2.88,4.98.52.95,1.71,1.29,2.66.77.02-.01.04-.02.06-.03.65-.3,1.28-.66,1.88-1.06,1.14-.79,2.07-.5,3.3.03,2.6,1.13,3.57,2.84,3.19,5.61-.19,1.35.75,2.18,2.1,2.2,1.84.03,3.68.03,5.52,0,1.14.07,2.12-.8,2.19-1.94,0-.08,0-.16,0-.24.04-.8,0-1.6,0-2.4.03-2.05,4.17-4.49,5.98-3.51.74.4,1.44.87,2.18,1.25.92.61,2.17.36,2.78-.56.04-.06.08-.13.12-.2.99-1.6,1.93-3.22,2.82-4.87.59-.94.31-2.18-.63-2.77-.03-.02-.06-.04-.09-.05-.42-.31-.87-.57-1.34-.79-1.61-.67-2.41-1.74-2.01-3.56.08-.56.06-1.12-.05-1.67-.18-.94.32-1.88,1.2-2.26.71-.37,1.4-.77,2.08-1.2,1.02-.49,1.45-1.72.96-2.75-.04-.08-.09-.16-.14-.24-.86-1.58-1.76-3.14-2.7-4.67-.47-1.05-1.71-1.51-2.75-1.03-.15.07-.29.15-.42.25-.65.46-1.36.84-2.09,1.15-.73.2-1.51.19-2.24-.04-.87-.39-1.71-.86-2.5-1.39-.75-.33-1.22-1.1-1.17-1.92.03-.84.03-1.68,0-2.52.07-1.16-.8-2.16-1.96-2.23-.1,0-.21,0-.31,0-1.68-.02-3.36-.01-5.04,0-1.81.01-2.65.74-2.51,2.55.19,2.34-.35,3.91-2.72,5.04-1.67.8-2.88,1.03-4.36-.06-.76-.47-1.56-.89-2.38-1.24"/>
        <path id="Tracé_487" data-name="Tracé 487" class="cls-3" d="M35.44,72.21c-.96.03-1.77-.72-1.8-1.68,0-.04,0-.09,0-.13,0-.99.82-1.79,1.81-1.78.99,0,1.79.82,1.78,1.81,0,.99-.81,1.78-1.8,1.79"/>
        <path id="Tracé_488" data-name="Tracé 488" class="cls-3" d="M44.14,72.21c-.99.03-1.81-.75-1.84-1.73,0-.02,0-.04,0-.07-.04-1.01.74-1.87,1.75-1.91.04,0,.07,0,.11,0,.98,0,1.76.8,1.76,1.78,0,.03,0,.07,0,.1.05.96-.69,1.78-1.65,1.83-.04,0-.09,0-.13,0"/>
        <path id="Tracé_489" data-name="Tracé 489" class="cls-3" d="M54.09,70.41c.03.96-.73,1.77-1.69,1.8-.04,0-.08,0-.13,0-.99,0-1.8-.81-1.8-1.8,0-.01,0-.02,0-.04-.02-1.02.79-1.85,1.8-1.87.03,0,.07,0,.1,0,.98.03,1.75.85,1.72,1.82,0,.03,0,.06,0,.09"/>
        <path id="Tracé_490" data-name="Tracé 490" class="cls-3" d="M79.16,43.32c-6.14,0-11.12-4.96-11.13-11.1s4.96-11.12,11.1-11.13,11.12,4.96,11.13,11.1c0,0,0,.02,0,.03-.08,6.1-5,11.02-11.1,11.1M86.54,32.29c.05-4.08-3.22-7.43-7.3-7.48-4.08-.05-7.43,3.22-7.48,7.3-.05,4.08,3.22,7.43,7.3,7.48.01,0,.02,0,.03,0,4.02.08,7.36-3.11,7.44-7.13,0-.06,0-.11,0-.17"/>
      </g>
    </g>
  </g>
</svg>