<?xml version="1.0" encoding="UTF-8"?>
<svg id="Calque_1" data-name="Calque 1" xmlns="http://www.w3.org/2000/svg" xmlns:xlink="http://www.w3.org/1999/xlink" viewBox="0 0 124.11 113.91">
  <defs>
    <style>
      .cls-1 {
        clip-path: url(#clippath);
      }

      .cls-2 {
        fill: none;
      }

      .cls-2, .cls-3 {
        stroke-width: 0px;
      }

      .cls-3 {
        fill: #7F351B;
      }
    </style>
    <clipPath id="clippath">
      <rect class="cls-2" y="0" width="124.11" height="113.89"/>
    </clipPath>
  </defs>
  <g id="Groupe_1585" data-name="Groupe 1585">
    <g class="cls-1">
      <g id="Groupe_1584" data-name="Groupe 1584">
        <path id="Tracé_452" data-name="Tracé 452" class="cls-3" d="M17.03,31.04c-3.14-3.57-3.07-6.59,0-9.66,4.55-4.56,9.11-9.12,13.67-13.68,2.3-2.3,4.49-2.65,7.45-1.44.65.17,1.34.08,1.92-.25,4.65-2.58,9.39-5.02,14.72-5.74,3.01-.31,6.04-.36,9.06-.15.87.11,1.63.63,2.06,1.39.18.44-.59,1.56-1.2,2.01-5.32,3.8-9.44,9.04-11.88,15.1-.42.82-.34,1.81.22,2.55,1.46,2.18,1.24,5.08-.53,7.01-.4.47-.85.9-1.42,1.5,2.37,2.37,4.73,4.73,7.08,7.07,2.36,2.37,4.72,4.74,7.2,7.22,2.21-2.23,4.35-4.38,6.49-6.53,2.18-2.19,4.42-4.34,6.53-6.6.56-.62.88-1.41.92-2.24-.23-11.49,8.31-21.27,19.72-22.61,3.85-.51,7.77.03,11.34,1.57,1.95.84,2.17,1.86.69,3.35-3.56,3.58-7.17,7.13-10.69,10.75-.53.58-.83,1.33-.87,2.11-.02,2.11.18,4.22.31,6.71,2.42,0,4.83.04,7.23-.04.41-.01.85-.53,1.2-.88,3.55-3.53,7.09-7.06,10.62-10.6,1.65-1.64,2.62-1.44,3.52.71,4.71,11.43-.74,24.51-12.16,29.21-2.78,1.14-5.75,1.72-8.75,1.69-1.02-.06-2,.35-2.68,1.11-4.2,4.26-8.44,8.47-12.61,12.64l4.43,4.26c.19-.12.36-.27.52-.43.58-.81,1.7-.99,2.5-.41.17.12.31.27.43.44,2.07,2.09,4.15,4.16,6.23,6.24,4.85,4.85,9.7,9.7,14.55,14.55,4.27,4.29,4.26,9.14,0,13.42-1.53,1.53-3.03,3.09-4.6,4.58-3.1,3.12-8.14,3.14-11.26.04-.01,0-.02-.02-.03-.03-7.34-7.25-14.6-14.57-21.9-21.85-.8-.54-1-1.62-.46-2.42.13-.19.3-.35.49-.48.3-.28.57-.59.8-.85l-4.66-4.47c-.4.59-.84,1.14-1.31,1.67-3.48,3.52-7.01,6.99-10.47,10.53-.48.49-.76,1.14-.79,1.82.48,10.67-6.85,20.12-17.31,22.3-4.58,1.12-9.4.8-13.79-.92-1.94-.79-2.16-1.87-.68-3.36,3.56-3.58,7.17-7.13,10.69-10.75.51-.59.82-1.34.87-2.12.12-2.05.04-4.1.04-6.29-2.6-.13-4.95-.3-7.3-.33-.54.09-1.03.36-1.39.78-3.59,3.55-7.15,7.14-10.73,10.71-1.66,1.65-2.66,1.46-3.5-.72-4.82-12.47,2.25-28.37,16.96-30.79.96-.2,1.95-.24,2.92-.13,1.98.35,3.23-.57,4.52-1.91,3.61-3.75,7.34-7.38,10.9-10.95l-14.2-14.23c-4.7,3.63-6.35,3.63-10.7-.28-.94.95-1.94,1.89-2.84,2.91-.18.2-.06.76.06,1.1.75,1.88.26,4.02-1.24,5.39-1.96,1.98-3.91,3.97-5.91,5.9-1.75,1.97-4.77,2.15-6.74.4-.14-.13-.28-.26-.4-.4-3.13-3.07-6.23-6.17-9.3-9.29-1.97-1.8-2.11-4.85-.31-6.82.11-.12.22-.23.34-.34,1.91-1.95,3.87-3.85,5.79-5.81,1.4-1.52,3.59-2.03,5.52-1.3.49.11,1,0,1.42-.27.94-.71,1.78-1.56,2.7-2.39M20,97.49c.49-.46.86-.8,1.22-1.15,3.03-3.02,6.07-6.03,9.06-9.09.7-.76,1.73-1.14,2.75-1,2.77.21,5.56.34,8.34.41,1.02-.13,1.95.59,2.09,1.6.02.16.02.32,0,.48.07,2.63.13,5.26.3,7.88.13,1.24-.34,2.46-1.28,3.28-3.04,2.93-6,5.96-8.99,8.95-.33.33-.62.71-1,1.15,12.82,3.45,26.26-6.03,24.9-19.46-.13-1.23.37-2.44,1.32-3.23,12.89-12.85,25.76-25.72,38.6-38.61.85-.96,2.11-1.45,3.39-1.33,9.91.59,18.62-6.54,19.99-16.37.5-3.02.19-6.11-.89-8.97-.37.6-.79,1.17-1.24,1.71-2.97,3.01-5.95,6.01-8.98,8.96-.52.55-1.21.9-1.96.99-3.09,0-6.18-.14-9.27-.27-.87.05-1.62-.62-1.67-1.49,0-.05,0-.11,0-.16.01-1.75-.1-3.5-.34-5.24-.79-3.88.67-6.61,3.62-9.06,2.68-2.22,4.99-4.88,7.76-7.65-1.61-.35-3.24-.61-4.88-.79-10.66-.62-19.8,7.51-20.42,18.17-.05.85-.04,1.7.02,2.55.04.84-.23,1.67-.77,2.33-13.16,13.24-26.35,26.43-39.6,39.58-.72.52-1.57.8-2.46.82-2.09.23-4.25.04-6.27.51-7.61,1.79-13.57,9.08-14.05,16.91-.3,2.55-.07,5.14.68,7.6M35.2,8.51c-.77.39-1.5.86-2.18,1.4-4.7,4.63-9.37,9.3-14.02,13.99-1.56,1.57-1.54,2.98.02,4.56,4.03,4.06,8.08,8.1,12.14,12.14,1.49,1.48,2.95,1.48,4.45.01,1.69-1.66,3.33-3.38,5.01-5.05,3.03-3.03,6.08-6.02,9.1-9.06,1.35-1.36,1.49-2.88.28-4.1-4.27-4.33-8.58-8.63-12.92-12.89-.58-.41-1.22-.75-1.89-.99M80.28,83.77c.02.08.06.15.11.21,6.92,6.93,13.81,13.88,20.77,20.75,1.8,1.88,4.79,1.95,6.67.15.05-.05.09-.09.14-.14,1.62-1.5,3.16-3.11,4.72-4.68,2.88-2.9,2.89-5.85,0-8.74-6.34-6.35-12.67-12.69-19.02-19.02-.36-.36-.73-.7-.96-.92l-12.43,12.38M62.78,46.21l-13.88-13.85-7.42,7.39,13.82,13.94,7.48-7.49M3.05,44.42c.25.51.55.98.9,1.43,3,3.04,6.05,6.05,9.06,9.08.56.79,1.65.98,2.45.43.14-.1.27-.22.37-.35,1.94-1.92,3.87-3.85,5.79-5.79.78-.59.93-1.7.34-2.48-.1-.13-.21-.25-.34-.34-3.07-3.05-6.13-6.11-9.18-9.18-.55-.76-1.61-.94-2.37-.39-.12.09-.23.19-.33.31-1.98,1.95-3.95,3.92-5.89,5.91-.32.43-.59.89-.81,1.38M49.94,17.37c2.21-5.6,5.78-10.57,10.4-14.43-7.34,0-13.25,2.78-18.86,5.95l8.46,8.48M83.85,67.01l-7.59,7.58,3.86,4.11,7.72-7.74-3.99-3.95M25.55,39.78l-6.37-6.34-2.91,2.74,6.47,6.45,2.81-2.86"/>
        <path id="Tracé_453" data-name="Tracé 453" class="cls-3" d="M53.4,78.57c-.58-.37-1.21-.54-1.36-.91-.18-.56-.19-1.17-.02-1.74.08-.35.52-.62.81-.91,10.72-10.72,21.43-21.45,32.15-32.17.29-.29.57-.76.91-.8.65-.09,1.55-.17,1.93.19s.32,1.27.21,1.9c-.06.39-.56.71-.88,1.04-10.68,10.69-21.37,21.37-32.05,32.05-.54.48-1.1.93-1.69,1.35"/>
      </g>
    </g>
  </g>
</svg>