<?xml version="1.0" encoding="UTF-8"?>
<svg id="Calque_1" data-name="Calque 1" xmlns="http://www.w3.org/2000/svg" xmlns:xlink="http://www.w3.org/1999/xlink" viewBox="0 0 110.13 117.96">
  <defs>
    <style>
      .cls-1 {
        clip-path: url(#clippath);
      }

      .cls-2 {
        fill: none;
      }

      .cls-2, .cls-3 {
        stroke-width: 0px;
      }

      .cls-3 {
        fill: #7F351B;
      }
    </style>
    <clipPath id="clippath">
      <rect class="cls-2" x="0" width="110.09" height="117.96"/>
    </clipPath>
  </defs>
  <g id="Groupe_1590" data-name="Groupe 1590">
    <g class="cls-1">
      <g id="Groupe_1589" data-name="Groupe 1589">
        <path id="Tracé_464" data-name="Tracé 464" class="cls-3" d="M57.8,117.96c-2.08-.31-4.18-.53-6.24-.93-10.41-1.99-19.9-7.32-27.01-15.18-.85-.72-.96-1.99-.24-2.84.04-.05.08-.09.12-.13.86-.82,2.03-.73,3.03.35,3.75,4.13,8.25,7.52,13.25,10,19.32,9.66,42.78,4.29,55.97-12.82,6.1-7.67,9.43-17.18,9.45-26.97.15-22.01-15.46-40.98-37.09-45.06-1.39-.27-2.81-.38-4.21-.61-1.1-.03-1.96-.94-1.93-2.04,0-.04,0-.09,0-.13-.03-3.19-.03-6.37,0-9.56.02-1.44.79-2.14,2.27-2.16,1.8-.03,3.6,0,5.49,0v-5.85h-19.47v5.85c1.74,0,3.46,0,5.18,0,1.97.01,2.6.65,2.6,2.64,0,2.69,0,5.37,0,8.06s-.38,3.1-2.95,3.37c-9.42,1.01-18.27,4.97-25.3,11.32-.6.54-1.18,1.1-1.81,1.6-.78.7-1.99.64-2.69-.14,0,0,0,0,0,0-.71-.78-.67-1.98.09-2.7.97-.99,1.98-1.93,3.05-2.81,6.98-5.85,15.45-9.64,24.47-10.94.38-.06.75-.15,1.17-.24v-6.22h-5.06c-2.1,0-2.74-.65-2.74-2.76,0-2.84,0-5.68,0-8.52,0-1.81.7-2.49,2.52-2.49,7.49,0,14.98,0,22.47,0,1.82,0,2.49.68,2.5,2.51.01,2.92.01,5.84,0,8.75,0,1.8-.71,2.49-2.52,2.51-1.72.02-3.45,0-5.26,0v6.27c8.69,1.08,16.93,4.48,23.86,9.84l4.54-4.54c-.88-.89-1.96-1.95-3.03-3.03-.54-.49-1.03-1.03-1.47-1.61-.57-.74-.45-1.8.26-2.41.63-.69,1.68-.78,2.42-.22.31.22.6.48.86.76,3.56,3.55,7.12,7.11,10.67,10.66.28.26.53.55.76.86.58.73.5,1.78-.17,2.42-.62.75-1.73.86-2.48.25,0,0,0,0-.01-.01-.91-.77-1.77-1.59-2.59-2.45-.73-.73-1.41-1.51-2.07-2.23l-4.1,4.1c2.52,3.16,5.24,6.2,7.55,9.52,4.19,6.1,6.84,13.12,7.73,20.46,1.49,10.04-.34,20.28-5.2,29.19-8.1,14.73-20.49,23.51-37.23,25.94-.98.14-1.96.28-2.93.43h-6.45Z"/>
        <path id="Tracé_465" data-name="Tracé 465" class="cls-3" d="M66.57,60.71c.2-.35.42-.68.68-.98,5.72-5.74,11.45-11.47,17.18-17.19,1.42-1.42,2.51-1.62,3.45-.63.91.95.7,2.03-.64,3.38-5.73,5.73-11.46,11.45-17.19,17.18-.3.3-.63.56-.78.69.54,1.49.97,3.01,1.29,4.56.63,5.34-3.19,10.17-8.53,10.8-1.9.22-3.82-.12-5.53-.98-.58-.43-1.39-.31-1.82.27,0,.01-.02.02-.03.04-1.5,1.59-3.07,3.12-4.64,4.65-1.12,1.08-2.55,1-3.24-.16-.54-.9-.31-2.06.54-2.68.9-.89,1.79-1.8,2.69-2.68.88-.86,1.76-1.71,2.67-2.58-2.48-4.63-2.33-9.02,1.51-12.67,3.61-3.42,7.81-3.48,12.37-1M55.01,68.75c-.02,3.25,2.6,5.89,5.85,5.91,3.25.02,5.89-2.6,5.91-5.85-.04-3.23-2.64-5.84-5.87-5.9-3.23,0-5.86,2.61-5.9,5.84"/>
        <path id="Tracé_466" data-name="Tracé 466" class="cls-3" d="M61.02,104.35c-4.16-.13-8.28-.91-12.2-2.3-1.09-.23-1.79-1.3-1.56-2.4.01-.05.03-.11.04-.16.34-1.03,1.46-1.59,2.49-1.25.08.03.16.06.24.1,4.02,1.46,8.29,2.09,12.55,1.86,8.2-.36,15.9-3.99,21.42-10.07,5.56-5.97,8.55-13.89,8.34-22.04,0-1.26-.19-2.52-.31-3.78-.14-1.46.48-2.44,1.65-2.58,1.22-.15,2.05.54,2.23,2.06,1.48,11.86-1.95,22.08-10.45,30.49-4.67,4.62-10.59,7.77-17.04,9.07-2.43.51-4.93.68-7.4,1.01"/>
        <path id="Tracé_467" data-name="Tracé 467" class="cls-3" d="M18.57,70.76H2.91c-.38.01-.77,0-1.15-.03-.96-.08-1.72-.87-1.75-1.83-.07-.92.56-1.76,1.47-1.94.41-.09.83-.13,1.25-.12,10.63,0,21.27,0,31.91,0,.38-.01.76.02,1.14.1.96.16,1.62,1.04,1.51,2.01-.05.96-.82,1.73-1.78,1.78-.38.03-.77.04-1.15.02h-15.78"/>
        <path id="Tracé_468" data-name="Tracé 468" class="cls-3" d="M19.62,39.34h14.74c.42-.01.84,0,1.26.05.93.06,1.65.83,1.66,1.76.13.92-.48,1.79-1.4,1.97-.41.1-.83.15-1.25.14-9.98,0-19.96,0-29.94,0-.38,0-.76-.03-1.14-.1-.97-.12-1.66-1-1.55-1.96,0-.97.76-1.77,1.73-1.82.42-.04.84-.05,1.26-.04h14.62"/>
        <path id="Tracé_469" data-name="Tracé 469" class="cls-3" d="M17.64,57.01H6.83c-.42,0-.84-.02-1.26-.08-.92-.1-1.62-.87-1.64-1.8-.05-.96.63-1.8,1.58-1.96.38-.07.76-.11,1.14-.1,7.36,0,14.72,0,22.09,0,.38,0,.76.04,1.14.11,1.03.21,1.69,1.22,1.47,2.25-.16.76-.76,1.35-1.52,1.48-.45.07-.91.1-1.37.09-3.6,0-7.21,0-10.81,0"/>
        <path id="Tracé_470" data-name="Tracé 470" class="cls-3" d="M16.64,84.55c-3.45,0-6.9.02-10.35,0-1.78-.01-2.81-1.33-2.18-2.74.39-.82,1.27-1.3,2.17-1.18,5.98.01,11.96.01,17.94,0,1,0,1.99-.02,2.99,0,1.37.03,2.24.8,2.24,1.94-.02,1.11-.93,2-2.05,1.98-.06,0-.12,0-.19-.01-3.53.02-7.05,0-10.58,0"/>
        <path id="Tracé_471" data-name="Tracé 471" class="cls-3" d="M13.76,94.4c2.61,0,5.22-.02,7.82,0,.89-.11,1.71.52,1.82,1.41.01.73-.23,1.44-.68,2.01-.45.35-1.02.52-1.58.47-4.95.03-9.9.04-14.85.01-1.47,0-2.37-.8-2.37-1.96s.88-1.94,2.35-1.95c2.49-.02,4.99,0,7.48,0v.02Z"/>
      </g>
    </g>
  </g>
</svg>