<?xml version="1.0" encoding="UTF-8"?>
<svg id="Calque_1" data-name="Calque 1" xmlns="http://www.w3.org/2000/svg" xmlns:xlink="http://www.w3.org/1999/xlink" viewBox="0 0 139.62 141.4">
  <defs>
    <style>
      .cls-1 {
        clip-path: url(#clippath);
      }

      .cls-2, .cls-3 {
        fill: none;
      }

      .cls-2, .cls-4 {
        stroke-width: 0px;
      }

      .cls-3 {
        stroke: #27262a;
        stroke-miterlimit: 10;
        stroke-width: 2px;
      }

      .cls-4 {
        fill: #27262a;
      }
    </style>
    <clipPath id="clippath">
      <rect class="cls-2" width="139.62" height="141.4"/>
    </clipPath>
  </defs>
  <g id="Groupe_1592" data-name="Groupe 1592">
    <g class="cls-1">
      <g id="Groupe_1591" data-name="Groupe 1591">
        <path id="Tracé_472" data-name="Tracé 472" class="cls-4" d="M32.14,48.66c8.03-.1,14.84-5.9,16.22-13.81.05-.28.07-.56.13-.83.08-.58.62-.98,1.19-.9s.98.62.9,1.19c0,.04-.01.07-.02.1-.2,1.28-.51,2.54-.91,3.78-2.57,6.83-7.44,11.06-14.66,12.23-10.15,1.58-19.65-5.36-21.23-15.51-1.58-10.15,5.36-19.65,15.51-21.23,9.97-1.55,19.36,5.13,21.16,15.06.07.34.12.68.15,1.03.09.59-.31,1.14-.89,1.25-.59.07-1.12-.34-1.21-.92-.31-1.57-.74-3.1-1.3-4.6-2.71-5.9-7.34-9.31-13.84-9.83-9.06-.74-17.01,6.01-17.75,15.08-.68,8.39,5.06,15.94,13.33,17.51,1.06.2,2.15.27,3.22.4"/>
        <path id="Tracé_473" data-name="Tracé 473" class="cls-4" d="M46.7,32.07c-.11,2.58-.85,5.09-2.15,7.33-.23.35-.58.6-.98.71-.36.01-.69-.16-.89-.46-.15-.39-.14-.82.02-1.2.75-1.32,1.26-2.76,1.53-4.25.52-2.97-.07-6.04-1.67-8.6-.06-.09-.12-.18-.17-.28-.34-.49-.22-1.16.26-1.5.02-.01.04-.03.06-.04.45-.31,1.06-.19,1.37.26.03.05.06.09.08.14.66,1.14,1.23,2.33,1.67,3.57.37,1.42.66,2.86.86,4.31"/>
        <path id="Tracé_474" data-name="Tracé 474" class="cls-4" d="M16.25,49.06c-.15.32-.33.62-.55.9-2.28,2.3-4.56,4.59-6.86,6.86-.36.46-1.03.53-1.49.17-.46-.36-.53-1.03-.17-1.49.05-.06.11-.12.17-.17,2.28-2.29,4.57-4.58,6.85-6.86.3-.4.85-.51,1.29-.28.29.25.54.54.74.87"/>
        <path id="Tracé_475" data-name="Tracé 475" class="cls-4" d="M57.23,56.02c.05.59-.38,1.12-.97,1.17-.18.02-.35-.01-.51-.08-.15-.08-.3-.18-.42-.3-2.29-2.28-4.58-4.57-6.86-6.86-.38-.32-.5-.85-.29-1.3.17-.43.62-.66,1.06-.56.25.05.49.16.68.34,2.33,2.31,4.64,4.62,6.95,6.95.15.19.28.41.36.64"/>
        <path id="Tracé_476" data-name="Tracé 476" class="cls-4" d="M49.05,16.22c-.29-.22-.74-.4-.83-.69-.12-.4-.06-.82.16-1.17.57-.66,1.17-1.28,1.81-1.86,1.69-1.69,3.37-3.37,5.06-5.06.33-.4.9-.52,1.35-.26.43.2.65.7.5,1.15-.04.19-.14.36-.27.5-2.32,2.34-4.66,4.67-7,6.99-.24.17-.51.3-.79.4"/>
        <path id="Tracé_477" data-name="Tracé 477" class="cls-4" d="M8,6.91c.31.12.6.29.87.48,2.3,2.27,4.58,4.56,6.86,6.85.45.37.51,1.04.14,1.49s-1.04.51-1.49.14c-.05-.04-.1-.09-.14-.14-2.29-2.28-4.58-4.56-6.86-6.85-.37-.3-.47-.83-.24-1.24.24-.29.53-.53.85-.73"/>
        <path id="Tracé_478" data-name="Tracé 478" class="cls-4" d="M33.13,4.6v3.25c0,.77-.39,1.2-1.05,1.2s-1.03-.44-1.03-1.22c0-2.21,0-4.42,0-6.63C31.05.45,31.45,0,32.1,0s1.03.45,1.03,1.22v3.38"/>
        <path id="Tracé_479" data-name="Tracé 479" class="cls-4" d="M4.6,31.05c1.1,0,2.21,0,3.31,0,.55-.07,1.05.31,1.12.86,0,.06.01.13,0,.19,0,.65-.42,1.03-1.15,1.03-2.25,0-4.51,0-6.76,0-.57.05-1.08-.37-1.13-.95-.05-.57.37-1.08.95-1.13.07,0,.14,0,.2,0,1.15,0,2.3,0,3.44,0"/>
        <path id="Tracé_480" data-name="Tracé 480" class="cls-4" d="M59.65,33.13c-1.13,0-2.25,0-3.38,0-.57.05-1.08-.37-1.14-.94-.05-.57.37-1.08.94-1.14.07,0,.14,0,.2,0,2.25,0,4.51,0,6.76,0,.57-.05,1.08.37,1.14.94.05.57-.37,1.08-.94,1.14-.07,0-.14,0-.2,0-1.13,0-2.25,0-3.38,0"/>
        <path id="Tracé_481" data-name="Tracé 481" class="cls-4" d="M33.13,59.66c0,1.13,0,2.25,0,3.38.05.57-.37,1.08-.94,1.14-.57.05-1.08-.37-1.14-.94,0-.07,0-.14,0-.2,0-2.25,0-4.51,0-6.76-.05-.57.37-1.08.94-1.14.57-.05,1.08.37,1.14.94,0,.07,0,.14,0,.2,0,1.13,0,2.25,0,3.38"/>
        <path id="Tracé_482" data-name="Tracé 482" class="cls-4" d="M128.02,39.29c1.09,1.28,2.11,2.61,3.05,4,3.19,5.25,1.52,12.1-3.73,15.29-1.21.74-2.56,1.24-3.96,1.47-4.9.78-8.58-1.14-11.38-5.02-.64-.89-1.13-1.9-1.73-2.92-.1.21-.21.42-.32.63-1.27,2.92-3.57,5.28-6.46,6.63-5.72,2.4-12.31-.29-14.71-6.01-.35-.82-.59-1.68-.73-2.57-.7-3.97.82-7.26,3.43-10.15.4-.44.81-.86,1.21-1.29-.99-.21-2.02-.36-3.01-.65-4.09-1.2-7.05-3.64-8.25-7.87-1.71-5.96,1.74-12.17,7.7-13.88.27-.08.55-.15.83-.2,3-.53,6.09.02,8.71,1.56.24.13.48.26.73.39-.1-1.12-.26-2.22-.3-3.31-.29-3.47,1.09-6.86,3.72-9.14,3.03-2.82,7.41-3.66,11.27-2.16,4.02,1.31,6.89,4.88,7.3,9.09.23,1.69.16,3.41-.19,5.09-.03.13-.03.27-.05.38,1.14-.48,2.24-1.03,3.39-1.42,5.82-2.09,12.24.93,14.33,6.75,2.02,5.62-.72,11.83-6.24,14.13-1.34.46-2.72.83-4.11,1.11-.21.05-.43.08-.5.1M116.23,39.9c1.64,1.19,2.79,2.94,3.23,4.91.22.71.52,1.4.9,2.04.29.56.27,1.07-.15,1.38-.39.3-.95.23-1.25-.15-.04-.06-.08-.12-.11-.19-.51-.91-.92-1.87-1.24-2.86-.39-1.57-1.38-2.93-2.77-3.78-.23-.1-.5-.12-.74-.04-.72.21-1.41.52-2.14.7-.96.23-1,.19-1.1,1.16-.48,3.84.46,7.71,2.65,10.9,2.73,4.38,8.5,5.72,12.88,2.98,3.7-2.31,5.31-6.86,3.89-10.98-2.08-5.32-6.43-7.92-11.81-9.04-.16-.01-.32.06-.42.18-.62.91-1.21,1.84-1.82,2.79M109.2,25.07c-.56-1.62-.57-3.38-.03-5,.47-1.03.75-2.13.81-3.26,0-.46.37-.82.83-.82.01,0,.02,0,.04,0,.44-.05.84.25.92.69.07.27.08.55.03.82-.2.95-.44,1.88-.74,2.8-.57,1.48-.53,3.12.11,4.57.09.18.25.32.44.39.92.34,1.87.62,2.79.97.3.12.46.12.65-.12.46-.57.98-1.1,1.41-1.69,2.6-3.61,3.86-7.58,2.91-12.03-1.06-4.47-5.22-7.49-9.8-7.12-5.13.41-8.98,4.88-8.62,10.02.13,4.07,1.8,7.94,4.67,10.82.16.13.38.17.58.12,1-.35,1.99-.75,3.02-1.14M101.95,35.69v-3.6c-.06-.02-.13-.04-.19-.04-2-.02-3.93-.76-5.43-2.08-.58-.45-1.21-.81-1.88-1.1-.64-.31-.92-.7-.73-1.22.13-.48.63-.76,1.11-.63.09.02.17.06.25.11.93.43,1.81.96,2.63,1.57,1.26,1.05,2.88,1.57,4.52,1.44.19-.02.36-.11.48-.25.55-.77,1.06-1.57,1.62-2.4-.13-.13-.26-.28-.37-.42-1.01-1.27-1.93-2.6-2.77-3.99-.55-1.09-1.42-2-2.48-2.6-.45-.26-.89-.53-1.35-.75-2.39-1.3-5.19-1.64-7.83-.95-3.67,1.16-6.28,4.42-6.6,8.26-.15,4.63,2.07,8.05,6.23,9.57,2.15.78,4.45,1.06,6.72.84,2.12-.21,4.18-.8,6.08-1.74M118.79,35.09c.05.02.11.04.16.05,2.07.38,4.06,1.09,5.9,2.11.28.15.58.24.9.24,2.29.1,4.56-.35,6.65-1.29,4.67-2.19,6.68-7.75,4.49-12.43-1.63-3.48-5.23-5.61-9.06-5.36-2.72.28-5.29,1.35-7.4,3.09-.2.18-.37.4-.49.65-.57.97-1.08,1.99-1.7,2.92-.58.87-1.3,1.65-1.93,2.44l1.74,2.44c1.75-1.29,3.94-1.84,6.09-1.55.49.01.99-.04,1.47-.16.25-.03.5-.13.75-.15.44-.05.84.25.92.68.13.42-.08.87-.48,1.04-.15.09-.32.15-.5.17-1.1.09-2.2.21-3.3.22-1.48-.03-2.92.49-4.03,1.47-.16.15-.26.36-.28.59,0,.91.07,1.81.11,2.8M106.19,41.13c-.59,1.85-1.8,3.44-3.43,4.49-.7.51-1.35,1.08-1.95,1.7-.46.44-.93.55-1.37.2-.4-.35-.45-.95-.1-1.36,0,0,.01-.02.02-.02.67-.89,1.52-1.63,2.48-2.18,1.34-.82,2.28-2.14,2.62-3.67.06-.2.04-.41-.06-.59-.57-.76-1.17-1.48-1.8-2.27l-.34.15c-1.63.76-3.37,1.29-5.15,1.56-.71.03-1.4.28-1.96.73-.93.77-1.82,1.59-2.65,2.46-2.13,2.45-3.29,5.26-2.54,8.55,1.03,5.06,5.97,8.33,11.04,7.3,1.47-.3,2.85-.95,4.02-1.9,2.12-1.88,3.62-4.37,4.29-7.12.03-.11.04-.23.02-.35-.48-2.21-.56-4.48-.23-6.72l-2.9-.98M116.92,33.63c0-3.64-2.96-6.59-6.6-6.59-3.64,0-6.59,2.96-6.59,6.6,0,3.64,2.96,6.59,6.6,6.59,0,0,.01,0,.02,0,3.63,0,6.57-2.95,6.57-6.58,0,0,0-.01,0-.02"/>
        <path id="Tracé_483" data-name="Tracé 483" class="cls-4" d="M110.3,140c-.64-.26-1.02-.93-.92-1.62.05-2.37.02-4.75.02-7.26-.22.19-.36.32-.5.45-1.4,1.34-2.8,2.69-4.21,4.02-.4.49-1.12.56-1.61.16-.21-.17-.35-.41-.4-.67-.07-.46.11-.92.49-1.19,1.97-1.87,3.93-3.74,5.88-5.63.19-.19.31-.44.34-.71.02-4.71.01-9.42.01-14.13,0-.09,0-.18-.02-.33-.16.08-.3.13-.42.2-3.99,2.33-7.99,4.67-11.98,7-.31.17-.53.47-.59.81-.6,2.6-1.21,5.2-1.83,7.79-.05.64-.61,1.11-1.24,1.06-.64-.05-1.11-.61-1.06-1.24,0-.12.04-.23.08-.34.47-2.03.95-4.05,1.45-6.17-.23.12-.39.2-.54.28-2.01,1.18-4.02,2.36-6.04,3.53-.51.38-1.23.28-1.6-.23-.38-.51-.28-1.23.23-1.6.07-.05.14-.09.22-.13,1.99-1.17,3.99-2.34,5.99-3.51.16-.09.32-.2.58-.36l-3.1-.9c-1.03-.3-2.06-.58-3.08-.89-.53-.13-.9-.62-.87-1.17.04-.53.43-.96.96-1.04.26-.02.52,0,.77.09,2.55.72,5.09,1.46,7.64,2.17.26.07.54.05.78-.07,4.09-2.37,8.16-4.75,12.23-7.15.08-.05.15-.1.29-.2-.21-.13-.37-.24-.54-.34-3.96-2.32-7.92-4.64-11.89-6.95-.27-.14-.58-.18-.88-.11-2.62.72-5.24,1.47-7.86,2.21-.57.27-1.26.02-1.52-.55-.27-.57-.02-1.26.55-1.52.11-.05.23-.09.35-.1,1.93-.56,3.86-1.11,5.79-1.67.09-.02.17-.06.36-.12-.23-.15-.39-.26-.55-.36-2-1.17-3.99-2.34-5.99-3.51-.5-.22-.77-.78-.63-1.31.08-.49.5-.85.99-.85.32,0,.62.1.89.27,1.97,1.13,3.93,2.29,5.9,3.44.16.09.33.18.58.33-.28-1.21-.54-2.33-.8-3.45-.22-.95-.45-1.9-.67-2.85-.24-.59.05-1.27.64-1.5.03-.01.06-.02.09-.03.71-.19,1.27.18,1.47,1.01.63,2.63,1.26,5.26,1.87,7.89.07.36.3.68.63.85,3.94,2.28,7.87,4.58,11.79,6.89.17.1.35.2.6.34v-.62c0-4.56,0-9.12.01-13.68.01-.39-.15-.77-.45-1.02-1.95-1.83-3.88-3.69-5.81-5.54-.37-.28-.55-.75-.45-1.2.09-.44.43-.78.87-.87.45-.09.92.09,1.2.45,1.38,1.32,2.75,2.63,4.13,3.94.13.13.27.25.51.46v-7.64c-.04-.57.36-1.08.93-1.17.5-.1,1,.16,1.21.62.08.23.12.47.12.71,0,2.45,0,4.9,0,7.44.18-.14.31-.23.42-.34,1.39-1.33,2.78-2.65,4.17-3.98.4-.5,1.12-.58,1.62-.18.5.4.58,1.12.18,1.62-.07.08-.15.16-.23.22-1.66,1.59-3.28,3.23-5,4.74-.82.67-1.27,1.7-1.18,2.76.07,4.18.03,8.37.03,12.55v.69c.19-.09.34-.15.48-.23,4.01-2.35,8.02-4.7,12.02-7.06.23-.15.39-.37.47-.63.63-2.59,1.24-5.19,1.85-7.78.03-.15.07-.29.11-.44.16-.59.77-.94,1.36-.8.61.16.98.79.83,1.4-.44,1.9-.9,3.8-1.35,5.7-.05.21-.09.43-.16.74l4.03-2.35c.81-.48,1.62-.95,2.43-1.43.76-.44,1.41-.34,1.78.26.38.62.14,1.27-.64,1.72-2.01,1.18-4.02,2.36-6.04,3.54-.1.06-.19.12-.38.25l2.7.78c1.15.33,2.31.65,3.46,1,.61.14.99.74.85,1.35-.11.47-.51.82-.99.87-.26,0-.52-.04-.77-.12-2.51-.71-5.02-1.44-7.53-2.14-.28-.08-.57-.06-.83.06-4.08,2.37-8.16,4.75-12.23,7.15-.08.05-.15.1-.28.19.21.13.38.25.55.35,3.94,2.31,7.88,4.63,11.83,6.94.3.19.67.24,1,.12,2.51-.73,5.02-1.45,7.53-2.15.25-.08.51-.12.77-.11.53.07.93.49.99,1.02.05.55-.31,1.05-.84,1.19-1.29.39-2.6.75-3.89,1.13l-2.32.67c.3.18.49.31.69.43,1.98,1.16,3.96,2.32,5.94,3.48.48.23.72.78.57,1.29-.08.49-.51.84-1,.84-.32-.01-.62-.11-.89-.27-1.99-1.15-3.96-2.31-5.95-3.47-.14-.08-.29-.16-.53-.29.33,1.38.63,2.67.93,3.97.18.77.37,1.53.54,2.3.2.6-.12,1.24-.71,1.44-.6.2-1.24-.12-1.44-.71-.02-.07-.04-.14-.05-.21-.49-1.99-.95-3.98-1.42-5.97-.09-.25-.15-.51-.18-.77-.08-1.17-.83-2.19-1.93-2.61-3.69-2.08-7.32-4.25-10.97-6.39-.09-.05-.19-.1-.38-.2v.54c0,4.62,0,9.23.02,13.85.02.3.14.59.35.81,1.9,1.85,3.83,3.68,5.75,5.52.39.28.59.76.5,1.24-.13.62-.74,1.01-1.36.87-.25-.05-.47-.19-.63-.38-1.37-1.3-2.73-2.6-4.09-3.9-.14-.14-.3-.27-.54-.48v.87c0,2.13-.03,4.26.02,6.39.1.69-.28,1.35-.92,1.62h-.44Z"/>
        <path id="Tracé_484" data-name="Tracé 484" class="cls-4" d="M59.01,85.8c1.08.55,1.22,1.17.47,2.17-2.39,3.08-4.34,6.48-5.77,10.11-1.35,3.65-2.19,7.47-2.48,11.35-.21,3.17-.73,6.31-1.54,9.37-.81,3.19-2.37,6.14-4.55,8.6-1.94,2.09-4.44,3.59-7.2,4.31-4.08,1.16-8.4,1.17-12.48.01-1.34-.47-2.66-1.01-3.94-1.63-.14-.06-.28-.15-.49-.27-.41,1.25-.84,2.45-1.2,3.67-.57,1.79-.93,3.64-1.07,5.52-.02.37.01.74,0,1.12.06.52-.25,1.01-.74,1.19-.51.17-1.07-.03-1.36-.48-.03-.03-.07-.06-.11-.09l-.16-1.26c.1-.88.16-1.76.3-2.63.49-2.72,1.26-5.39,2.31-7.95.15-.25.08-.58-.17-.75-1.78-1.55-3.15-3.51-4.01-5.7-.41-1.03-.69-2.12-1.03-3.18l-.38-3c.03-.14.04-.28.05-.42-.06-2.32.29-4.63,1.04-6.82,1.5-4.16,4.14-7.82,7.62-10.55,3.25-2.61,6.86-4.73,10.72-6.29,3.24-1.39,6.6-2.51,10.03-3.35,2.95-.71,5.92-1.32,8.88-1.96.87-.19,1.75-.34,2.62-.51l4.64-.59M56.22,88.51c-.22.03-.37.04-.53.07-2.44.44-4.89.85-7.33,1.33-3.71.73-7.35,1.72-10.92,2.98-4.47,1.47-8.68,3.61-12.51,6.33-3.13,2.16-5.66,5.08-7.36,8.48-2.52,4.88-2.45,10.69.19,15.5.61,1.12,1.41,2.13,2.37,2.97.07-.15.13-.26.19-.38,1.26-2.8,2.7-5.51,4.32-8.11,3.29-5.46,7.42-10.37,12.25-14.53,1.47-1.24,3.05-2.35,4.61-3.49.47-.41,1.19-.37,1.6.1.1.12.18.25.23.4.17.55-.08,1.14-.58,1.41-1.06.77-2.15,1.5-3.18,2.32-5.93,4.77-10.84,10.67-14.46,17.36-1.15,2.07-2.16,4.21-3.29,6.41,1.07.51,2.01,1.05,3,1.42,3.88,1.41,8.11,1.6,12.1.53,4.07-.96,7.44-3.78,9.12-7.61,1.15-2.46,1.92-5.07,2.28-7.76.39-2.62.63-5.27.97-7.9.67-5.24,2.4-10.29,5.08-14.84.58-.99,1.21-1.95,1.85-2.98"/>
        <line id="Ligne_40" data-name="Ligne 40" class="cls-3" x1="71.15" y1="8.63" x2="71.15" y2="138.81"/>
        <line id="Ligne_41" data-name="Ligne 41" class="cls-3" x1="136.24" y1="73.72" x2="6.06" y2="73.72"/>
      </g>
    </g>
  </g>
</svg>